PathFileType	4	(X/Y/Z)	/home/abdul/Desktop/myosuite/custom_workspace/IK/output/S1_12_2.trc
DataRate	CameraRate	NumFrames	NumMarkers	Units	OrigDataRate	OrigDataStartFrame	OrigNumFrames
200.0	200.0	55	3	mm	200.0	395	1578
Frame#	Time	V_Shoulder			V_Elbow			V_Wrist		
		X1	Y1	Z1	X2	Y2	Z2	X3	Y3	Z3

395	1.97	-165.95510642237133	557.1122699277427	397.8649896631279	-326.04506246174776	349.6941292938916	141.0126204044533	-175.10065989209528	192.01081731047395	302.4635729902773
396	1.975	-165.7229635093994	557.7088844639655	398.02761465874846	-326.31586147278415	349.8038497342267	141.9947120673054	-175.15149630090968	192.95145158854677	303.985020804957
397	1.98	-165.49081073304555	558.3022679538703	398.18922954813183	-326.5851508611199	349.9116139280991	142.9784762980423	-175.20129775597871	193.8925977483037	305.5051505551718
398	1.985	-165.25867108713246	558.8924487923256	398.349892681656	-326.8528616374323	350.01733064047835	143.9639856119844	-175.25008744617617	194.8340230973405	307.02409736462965
399	1.99	-165.02656910542396	559.4794511840981	398.5096604933806	-327.1189263737133	350.1209149753974	144.95130124971413	-175.2978827185404	195.7754901772596	308.54196517829246
400	1.995	-164.79453093542324	560.0632950504908	398.668587369759	-327.3832795342373	350.22228843238753	145.94047292451643	-175.344695226753	196.7167571120076	310.0588267785977
401	2.0	-164.56258440516208	560.6439959571914	398.8267255284663	-327.6458577967009	350.3213789377019	146.931538617495	-175.39053110280344	197.6575779835669	311.5747239321019
402	2.005	-164.33075908262245	561.2215650633251	398.9841249076059	-327.9066003615069	350.4181208510705	147.92452442013357	-175.43539115084155	198.59770323365285	313.0896676638314
403	2.01	-164.099086327462	561.7960090916289	399.14083306551646	-328.1654492472411	350.5124549488273	148.91944442387106	-175.479271062113	199.53688008994618	314.6036386561126
404	2.015	-163.86759933475074	562.3673303195898	399.2968950913526	-328.42234957048663	350.6043283843415	149.91630065606964	-175.52216164976778	200.47485301527655	316.1165877681682
405	2.02	-163.63633317045958	562.9355265913097	399.4523535265692	-328.67724980822635	350.69369462676514	150.91508306157226	-175.56404910223495	201.41136417806902	317.62843667230135
406	2.025	-163.40532479847937	563.5005913497916	399.6072482973914	-328.9301020412022	350.78051337918214	151.9157695288767	-175.60491525376824	202.34615394226762	319.1390786020514
407	2.03	-163.17461309898502	564.0625136892651	399.76161665830864	-329.1808621767329	350.86475047730596	152.91832595979412	-175.64473787068374	203.27896137486442	320.64837920730054
408	2.035	-162.94423887799815	564.6212784270975	399.91549314658477	-329.42949014962835	350.94637776992573	153.92270638131401	-175.6834909517381	204.20952476908417	322.1561775109317
409	2.04	-162.71424486803906	565.1768661947777	400.0689095477335	-329.67595009999263	351.0253729823444	154.92885309826306	-175.72114504103035	205.13758218120722	323.66228696129485
410	2.045	-162.48467571979924	565.7292535473783	400.22189487186466	-329.9202105268594	351.10171956408453	155.93669688522567	-175.75766755175613	206.06287197895386	325.16649657442633
411	2.05	-162.25557798480264	566.2784130908565	400.37447534076426	-330.16224441677457	351.1754065221626	156.94615721608614	-175.7930230990949	206.98513339930486	326.6685721596897
412	2.055	-162.02700008906433	566.8243136264815	400.52667438553027	-330.40202934660374	351.24642824124425	157.95714252946024	-175.82717384047749	207.90410711359442	328.1682576222641
413	2.06	-161.79899229779275	567.3669203116232	400.6785126545487	-330.63954756002136	351.3147842920007	158.9695505282031	-175.86007982145338	208.81953579768145	329.66527633569933
414	2.065	-161.5716066712208	567.9061948360821	400.8300080315534	-330.87478601731164	351.38047922897925	159.9832685111151	-175.89169932536282	209.7311647049853	331.1593325775861
415	2.07	-161.34489701168778	568.4420956130942	400.98117566348145	-331.10773641828985	351.4435223792916	160.99817373491425	-175.92198922501433	210.63874224016254	332.6501130212562
416	2.075	-161.11891880213253	568.9745779840911	401.1320279977977	-331.3383951983341	351.50392762340107	162.01413380450305	-175.95090533457235	211.54202053119974	334.1372882763268
417	2.08	-160.89372913619175	569.5035944362589	401.2825748289334	-331.56676349768986	351.56171316926316	163.03100708953195	-175.97840275987687	212.44075599770605	335.6205144708416
418	2.085	-160.66938664013495	570.029094831899	401.43282335345293	-331.7928471043892	351.61690132104	164.04864316524535	-176.00443624544172	213.3347099132073	337.09943486773216
419	2.09	-160.4459513868985	570.5510266485571	401.5827782335348	-332.0166563712953	351.6695182435685	165.06688327559206	-176.02896051641667	214.22364895926964	338.57368150832895
420	2.095	-160.22348480251597	571.069335228861	401.73244166832956	-332.2382061079504	351.7195937237161	166.0855608165895	-176.05193061384188	215.1073457693179	340.04287687569183
421	2.1	-160.0020495652699	571.5839640389751	401.8818134727337	-332.45751544806484	351.76716092971037	167.10450183794688	-176.07330222158052	215.985579460056	341.50663557060255
422	2.105	-159.78170949792212	572.0948549345674	402.0308911630985	-332.6746076936396	351.8122561694714	168.12352556097858	-176.09303198337963	216.85813614845162	342.9645659931617
423	2.11	-159.56252945340418	572.601948433156	402.1796700493758	-332.8895101368591	351.8549186489223	169.14244491087183	-176.11107780858094	217.72480945230785	344.4162720230709
424	2.115	-159.34457519437703	573.1051839917014	402.3281433331875	-333.1022538610266	351.89519023119124	170.16106706141355	-176.1273991650864	218.5854009725136	345.86135469183785
425	2.12	-159.12791326709115	573.6045002882918	402.4763022112941	-333.3128735219426	351.93311519756094	171.1791939903287	-176.1419573582703	219.4397207551424	347.299413840333
426	2.125	-158.91261087000018	574.0998355067767	402.6241359839267	-333.52140711123934	351.96874001095625	172.19662304343257	-176.15471579462653	220.28758773165276	348.73004975534013
427	2.13	-158.69873571760039	574.5911276231932	402.77163216744	-333.7278957032892	352.0021130827007	173.21314750585663	-176.16564022903918	221.12883013553625	350.15286477897763
428	2.135	-158.48635589998594	575.0783146928437	402.9187766107404	-333.93238318739776	352.03328454321104	174.22855717866645	-176.17469899467366	221.96328589385715	351.56746488512766
429	2.14	-158.2755397386238	575.5613351368901	403.0655536149391	-334.1349159870688	352.0623060172362	175.24263895925066	-176.18186321459535	222.79080299223284	352.97346121728697
430	2.145	-158.06635563886573	576.040128027343	403.2119460556822	-334.33554276819655	352.08923040419296	176.25517742392282	-176.18710699434007	223.611239811916	354.37047158254734
431	2.15	-157.85887193972565	576.5146333693459	403.35793550761076	-334.5343141380918	352.1141116640865	177.26595541124107	-176.1904075947773	224.4244654377561	355.7581218967244
432	2.155	-157.65315676145724	576.9847923796756	403.5035023704107	-334.73128233728903	352.1370046094572	178.27475460461235	-176.1917455847302	225.2303599359397	357.13604757597716
433	2.16	-157.4492778514754	577.4505477604029	403.64862599591737	-334.9265009261046	352.1579647037365	179.2813561128097	-176.19110497293804	226.0288146005363	358.50389487059294
434	2.165	-157.2473024291662	577.9118439666964	403.7932848157496	-335.12002446793036	352.1770478663535	180.28554104708974	-176.1884733190691	226.81973216800688	359.8613221369591
435	2.17	-157.04729703013436	578.3686274677789	403.9374564689602	-335.3119082112437	352.19431028488236	181.28709109365482	-176.18384182361837	227.60302699896627	361.20800104408795
436	2.175	-156.84932735043404	578.8208470000849	404.0811179292003	-335.5022077723006	352.2098082344869	182.28578908025725	-176.17720539664427	228.3786252266289	362.54361771142305
437	2.18	-156.653458091329	579.2684538117151	404.22424563091243	-335.69097882045	352.22359790487525	183.28141953579308	-176.16856270542092	229.14646487150557	363.86787377500616
438	2.185	-156.45975280512047	579.7114018973189	404.36681559408083	-335.8782767679663	352.2357352349504	184.2737692417794	-176.15791620120234	229.9064959220603	365.18048737944713
439	2.19	-156.26827374257763	580.149648222589	404.5088035470869	-336.0641564662458	352.24627575531025	185.26262777464973	-176.14527212540796	230.65868038117895	366.4811940934958
440	2.195	-156.0790817024941	580.5831529376022	404.6501850472367	-336.2486719101452	352.25527443872716	186.2477880378396	-176.13064049565486	231.40299227844264	367.76974774736726
441	2.2	-155.8922358838846	581.0118795782872	404.79093559854573	-336.43187595216904	352.2627855587178	187.22904678266627	-176.11403507216653	232.13941764833976	369.0459211903252
442	2.205	-155.7077937413248	581.4357952553636	404.93103076639096	-336.61382002812223	352.2688625562947	188.20620511703464	-176.09547330519354	232.86795447469336	370.30950696736977
443	2.21	-155.52581084392122	581.8548708301436	405.0704462886595	-336.794553895754	352.27355791497956	189.179069001024	-176.074976264177	233.5886126017158	371.56031791421395
444	2.215	-155.34634073838484	582.2690810766541	405.2091581830461	-336.974125387812	352.2769230441469	190.1474497284296	-176.0525685494792	234.30141361223986	372.79818767005713
445	2.22	-155.16943481666328	582.6784048295891	405.3471428501787	-337.15258018081664	352.27900817076113	191.11116439334552	-176.02827818758863	235.00639067380794	374.0229711079852
446	2.225	-154.99514218856908	583.0828251176704	405.48437717227154	-337.32996158074786	352.2798622395626	192.07003634088824	-176.00213651078556	235.70358835342756	375.23454468312724
447	2.23	-154.82350955982182	583.4823292820504	405.6208386070325	-337.50631032671146	352.27953282175883	193.02389560116484	-175.97417802232533	236.39306240192616	376.4328066989941
448	2.235	-154.65458111590087	583.8769090794564	405.75650527657564	-337.68166441352736	352.2780660322728	193.97257930559556	-175.94444024825754	237.07487950895393	377.6176774927029
449	2.24	-154.48839841208346	584.2665607698367	405.8913560511149	-337.8560589340477	352.2755064556029	194.9159320847014	-175.91296357705585	237.74911702979708	378.7890995400553
